# xmcd
#
# Track frame offsets: 
#        150
#        17489
#        33129
#        46464
#        62565
#        78936
#        96398
#        109715
#        121874
#        136242
#        150370
#        167285
#        179758
#        190056
#
# Disc length: 2695 seconds
#
# Revision: 2
# Processed by: cddbd v1.5.2PL0 Copyright (c) Steve Scherf et al.
# Submitted via: ExactAudioCopyFreeDBPlugin 1.0
#
DISCID=a30a850e
DTITLE=Various Artist - 2 Love Forever - POPULAR LOVESONG DUETS
DYEAR=2001
DGENRE=Country
TTITLE0=Kenny Rogers, Sheena Easton - We've got tonight
TTITLE1=The Judds - Why not me
TTITLE2=Dan Seals, Emmylou Harris - Lullabye
TTITLE3=Suzy Bogguss, Billy Dean - Something up my sleeve
TTITLE4=Tanya Tucker, Delbert McClinton - Tell me about
TTITLE5=Marie Osmond, Dan Seals - Meet me in Montana
TTITLE6=Lacy J.Dalton, Glen Campbell - Shaky ground
TTITLE7=Billy Jo Spears, Del Reeves - Let your love flow
TTITLE8=Tanya Tucker, T. Graham Brown - Don't go out with him
TTITLE9=Leann Rimes, Eddy Arnold - Cattle Call
TTITLE10=Barbara Mandrell, Waylon Jennings - Angel love bad men
TTITLE11=Suzy Boggus, Lee Greenwood - Hopelessly yours
TTITLE12=Willy Nelson, Shirly Collie - You dreamed about me
TTITLE13=Glen Campbell, Rita Coolidge - Something 'bout you baby I lik
TTITLE13=e
EXTD=YEAR: 2001
EXTT0=
EXTT1=
EXTT2=
EXTT3=
EXTT4=
EXTT5=
EXTT6=
EXTT7=
EXTT8=
EXTT9=
EXTT10=
EXTT11=
EXTT12=
EXTT13=
PLAYORDER=
